<?xml version="1.0" encoding="UTF-8"?>
<svg version="1.1" xmlns="http://www.w3.org/2000/svg" width="56" height="66">
<path d="M0 0 C1.58114795 2.33011277 1.41087696 3.99501755 1.1875 6.75 C0.65125 5.945625 0.115 5.14125 -0.4375 4.3125 C-2.58887901 1.63393875 -2.58887901 1.63393875 -5.375 0.6875 C-11.48038242 0.79850695 -17.296502 2.89373437 -22.2109375 6.51953125 C-24.08677703 8.69139127 -24.08677703 8.69139127 -23.890625 11.6953125 C-22.52115254 15.57548448 -20.76914225 17.0785488 -17.5625 19.625 C-16.60859375 20.40617187 -15.6546875 21.18734375 -14.671875 21.9921875 C-11.66496453 23.84069803 -10.25978772 24.16518429 -6.8125 23.75 C-7.1425 24.41 -7.4725 25.07 -7.8125 25.75 C-8.4725 25.75 -9.1325 25.75 -9.8125 25.75 C-9.4825 26.41 -9.1525 27.07 -8.8125 27.75 C-8.375 31.0625 -8.375 31.0625 -8.8125 34.75 C-13.3790853 39.64276997 -17.75171922 41.43336751 -24.4375 42.125 C-27.8125 41.75 -27.8125 41.75 -30.25 39.75 C-30.765625 39.09 -31.28125 38.43 -31.8125 37.75 C-30.86391656 33.88218441 -30.00898434 32.87180144 -26.5546875 30.73046875 C-25.27343028 30.11625782 -23.98394259 29.51897376 -22.6875 28.9375 C-22.02878906 28.62619141 -21.37007812 28.31488281 -20.69140625 27.99414062 C-19.07196276 27.23135927 -17.44308695 26.48866014 -15.8125 25.75 C-16.58078125 24.81800781 -17.3490625 23.88601562 -18.140625 22.92578125 C-18.5727832 22.40153564 -19.00494141 21.87729004 -19.45019531 21.3371582 C-21.44536516 19.01267807 -23.61739676 16.88412815 -25.8125 14.75 C-26.8125 13.75 -26.8125 13.75 -26.875 10.5625 C-25.59112358 5.95564932 -24.13986462 4.64411172 -20.26953125 2.04296875 C-14.17996233 -1.16155798 -6.23723867 -4.30154391 0 0 Z M-13.8125 26.75 C-16.11494142 27.79301197 -18.4024435 28.85757604 -20.6875 29.9375 C-21.33847656 30.22947266 -21.98945313 30.52144531 -22.66015625 30.82226562 C-25.84915248 32.35101124 -27.58321652 33.31560076 -29.2578125 36.48828125 C-29.44085937 37.23464844 -29.62390625 37.98101562 -29.8125 38.75 C-28.62584379 40.15086029 -28.62584379 40.15086029 -25.25 40.0625 C-19.6095239 40.0116849 -14.77947373 37.71697373 -10.8125 33.75 C-10.39583333 31.25 -10.39583333 31.25 -10.8125 28.75 C-11.8025 28.09 -12.7925 27.43 -13.8125 26.75 Z " fill="#B178EF" transform="translate(48.8125,9.25)"/>
<path d="M0 0 C0.66 0.66 1.32 1.32 2 2 C1.00097656 2.45890625 0.00195312 2.9178125 -1.02734375 3.390625 C-2.33108508 4.00966765 -3.63445134 4.62950064 -4.9375 5.25 C-5.59685547 5.55035156 -6.25621094 5.85070313 -6.93554688 6.16015625 C-9.09410359 7.16272868 -9.09410359 7.16272868 -12 9 C-12.33 10.32 -12.66 11.64 -13 13 C-10.36 13.66 -7.72 14.32 -5 15 C-5 15.33 -5 15.66 -5 16 C-11.4 16.49230769 -11.4 16.49230769 -14.4375 14 C-14.953125 13.34 -15.46875 12.68 -16 12 C-15.05141656 8.13218441 -14.19648434 7.12180144 -10.7421875 4.98046875 C-9.46093028 4.36625782 -8.17144259 3.76897376 -6.875 3.1875 C-5.88693359 2.72053711 -5.88693359 2.72053711 -4.87890625 2.24414062 C-3.25946276 1.48135927 -1.63058695 0.73866014 0 0 Z " fill="#BA88F0" transform="translate(33,35)"/>
<path d="M0 0 C2.73145737 0.88772365 3.89120004 1.44163691 5.5 3.8125 C5.6875 6.5 5.6875 6.5 5.5 8.8125 C4.984375 8.02875 4.46875 7.245 3.9375 6.4375 C0.9837677 3.25655752 -1.31606548 2.69756307 -5.5 1.8125 C-2.5 -0.1875 -2.5 -0.1875 0 0 Z " fill="#B076EF" transform="translate(44.5,7.1875)"/>
<path d="M0 0 C-1 3 -1 3 -3.25 4.1875 C-5.99791147 4.99938294 -8.15447889 5.16260121 -11 5 C-8.12934225 2.12934225 -4.13678472 0 0 0 Z " fill="#B076EF" transform="translate(37,45)"/>
</svg>
