<svg xmlns="http://www.w3.org/2000/svg" version="1.0" width="480.000000pt" height="195.000000pt" viewBox="0 0 480.000000 195.000000" preserveAspectRatio="xMidYMid meet">

<g transform="translate(0.000000,195.000000) scale(0.100000,-0.100000)" fill="#7a10eb" stroke="none">
<path d="M975 1431 c-144 -50 -264 -126 -345 -219 -55 -64 -73 -107 -74 -177 -1 -84 31 -145 115 -212 35 -29 67 -53 72 -53 4 0 26 -12 48 -26 36 -22 40 -29 34 -52 -4 -15 -14 -35 -22 -45 -21 -22 -121 -77 -195 -106 -52 -21 -87 -46 -77 -55 2 -2 18 -6 35 -9 25 -5 38 -1 60 18 16 14 33 25 39 25 5 0 50 20 100 44 49 25 119 56 155 69 36 14 92 38 125 55 33 16 87 42 120 56 33 15 71 33 85 41 14 8 48 26 75 41 28 15 62 35 78 46 32 23 33 21 41 -69 7 -85 40 -160 80 -180 59 -31 143 -13 196 42 37 38 75 48 66 18 -2 -10 -8 -48 -12 -85 -10 -109 10 -80 36 50 34 175 39 207 45 314 3 54 12 119 20 145 8 25 12 49 10 53 -2 3 0 39 6 79 9 79 1 101 -40 101 -26 0 -33 -24 -36 -134 -8 -274 -18 -391 -38 -434 -30 -64 -106 -111 -188 -114 -35 -1 -46 3 -65 27 -31 39 -40 116 -21 177 17 53 10 74 -37 121 -32 32 -71 35 -137 11 -24 -9 -53 -17 -64 -19 -37 -6 -195 -63 -220 -79 -38 -25 -31 -44 19 -51 32 -5 71 0 144 19 107 28 132 31 132 18 0 -10 -192 -106 -255 -129 -22 -7 -50 -20 -62 -28 -22 -15 -122 -55 -135 -55 -5 0 -8 15 -8 33 0 42 -4 47 -80 92 -124 74 -164 110 -175 157 -4 15 -11 30 -16 33 -15 10 -10 81 10 127 28 64 77 127 105 134 14 3 32 17 41 31 9 13 30 29 46 35 16 5 29 14 29 19 0 5 7 9 15 9 8 0 15 4 15 9 0 5 15 13 33 16 17 4 34 11 37 16 8 12 139 16 141 4 0 -5 6 -19 11 -29 10 -19 11 -19 29 3 20 25 39 20 39 -9 0 -20 -68 -110 -127 -170 -53 -52 -66 -110 -26 -110 21 0 81 65 85 92 2 12 16 29 33 38 19 10 32 28 38 50 5 19 15 43 23 54 32 47 3 115 -62 142 -45 19 -57 18 -149 -15z" fill="#7a10eb"/>
<path d="M3520 1159 c-78 -90 -141 -150 -153 -146 -6 2 -24 30 -41 62 -17 32 -36 60 -43 63 -7 2 -24 -16 -39 -40 -14 -24 -32 -48 -39 -53 -25 -20 -85 -124 -75 -130 6 -3 14 4 19 18 5 13 28 43 50 67 23 24 41 48 41 52 0 21 41 6 50 -18 30 -79 82 -106 118 -63 9 12 22 26 27 33 6 6 32 39 59 74 49 65 69 73 74 31 4 -37 42 -258 54 -312 16 -75 26 -42 17 53 -4 47 -10 132 -14 190 -6 113 -12 148 -28 168 -15 19 -21 16 -77 -49z" fill="#7a10eb"/>
<path d="M2780 1133 c-8 -3 -30 -19 -48 -34 -18 -16 -37 -29 -42 -29 -4 0 -22 -12 -39 -26 -21 -18 -31 -35 -31 -54 0 -39 11 -43 78 -29 79 16 112 14 136 -11 l21 -21 -50 -45 c-81 -73 -207 -123 -277 -110 -53 10 -102 46 -108 81 -3 18 -12 31 -23 33 -18 4 -66 -26 -107 -66 -64 -63 -93 -63 -112 -1 -21 72 -31 71 -116 -14 -96 -95 -128 -102 -86 -17 9 18 19 52 22 75 6 56 -15 64 -54 22 -28 -31 -29 -36 -29 -127 0 -127 12 -130 111 -26 74 78 98 91 109 56 10 -33 46 -60 79 -60 23 0 44 13 83 50 55 54 70 56 98 14 71 -108 299 -71 434 70 42 44 68 46 77 9 13 -56 47 -123 65 -128 33 -11 80 33 129 120 12 21 19 39 17 41 -2 3 -30 -20 -61 -51 -32 -30 -62 -55 -67 -55 -6 0 -15 14 -21 31 -6 17 -22 52 -35 77 -17 32 -26 70 -30 119 -5 69 -7 74 -38 93 -32 20 -56 24 -85 13z m91 -94 c16 -16 18 -23 9 -35 -18 -21 -204 -14 -208 9 -4 22 26 36 77 35 23 0 45 2 48 6 13 13 54 5 74 -15z" fill="#7a10eb"/>
<path d="M3890 1015 c-15 -39 -12 -88 10 -198 29 -143 29 -182 -1 -206 -13 -11 -31 -20 -39 -21 -9 0 -20 -4 -25 -8 -11 -9 -180 -82 -235 -101 -177 -62 -395 -132 -440 -141 -30 -7 -68 -16 -85 -21 -16 -4 -47 -11 -69 -14 -21 -4 -36 -9 -33 -12 3 -3 63 5 134 17 123 21 211 46 408 112 94 32 103 35 276 112 59 27 115 46 125 44 16 -3 22 -20 33 -98 13 -85 15 -91 22 -60 5 19 5 66 2 103 -6 66 7 117 29 117 15 0 108 72 108 83 -1 23 -46 63 -85 75 -69 21 -70 21 -75 134 -5 97 -6 103 -27 106 -17 3 -26 -3 -33 -23z m168 -287 c2 -9 -7 -22 -20 -29 -12 -7 -28 -18 -36 -25 -20 -21 -42 -5 -42 30 0 42 2 43 52 42 32 -1 44 -6 46 -18z" fill="#7a10eb"/>
<path d="M3450 598 c-122 -56 -167 -71 -285 -98 -27 -6 -68 -15 -90 -21 -22 -5 -62 -12 -90 -16 -27 -3 -54 -9 -60 -13 -5 -5 -35 -13 -65 -19 -118 -22 -357 -72 -385 -80 -16 -5 -55 -14 -85 -20 -264 -54 -390 -90 -390 -111 0 -13 17 -13 60 0 19 6 58 15 85 20 28 6 68 14 90 20 22 5 69 16 105 24 36 8 146 33 244 55 185 42 195 42 196 0 0 -31 37 -51 105 -56 45 -4 65 -2 65 6 0 6 -15 11 -34 11 -65 0 -115 35 -89 61 6 6 55 24 109 40 103 32 166 47 424 104 187 41 234 57 238 78 3 13 -4 17 -31 17 -19 0 -47 2 -63 5 -16 2 -40 -1 -54 -7z" fill="#7a10eb"/>
</g>
</svg>